<svg id="圖層_1" data-name="圖層 1" xmlns="http://www.w3.org/2000/svg" viewBox="0 0 70 70"><defs><style>.cls-1{fill:#f8f8f8;}.cls-2{fill:#2a4254;}</style></defs><title>element</title><circle class="cls-1" cx="35" cy="35" r="35"/><path class="cls-2" d="M52.73,35a4.89,4.89,0,0,1,4.35-4.85,22.54,22.54,0,0,0-3-7.34A4.87,4.87,0,0,1,47.19,16a22.54,22.54,0,0,0-7.34-3,4.88,4.88,0,0,1-9.7,0,22.54,22.54,0,0,0-7.34,3A4.87,4.87,0,0,1,16,22.81a22.54,22.54,0,0,0-3,7.34,4.88,4.88,0,0,1,0,9.7,22.54,22.54,0,0,0,3,7.34A4.87,4.87,0,0,1,22.81,54a22.54,22.54,0,0,0,7.34,3,4.88,4.88,0,0,1,9.7,0,22.54,22.54,0,0,0,7.34-3A4.87,4.87,0,0,1,54,47.19a22.54,22.54,0,0,0,3-7.34A4.89,4.89,0,0,1,52.73,35ZM35,44.31A9.31,9.31,0,1,1,44.31,35,9.31,9.31,0,0,1,35,44.31Z"/></svg>