<svg id="圖層_1" data-name="圖層 1" xmlns="http://www.w3.org/2000/svg" viewBox="0 0 70 70"><defs><style>.cls-1{fill:#f8f8f8;}.cls-2{fill:#2a4254;}</style></defs><title>element</title><circle class="cls-1" cx="35" cy="35" r="35"/><path class="cls-2" d="M55.2,32.55c-3.69,0-6.9,4-8.57,6.59-3.05-4.21-10.71-13.38-19.69-13.38-11.66,0-21.11,15.46-21.11,15.46s9.45,15.45,21.11,15.45c9,0,16.64-9.17,19.69-13.38,1.67,2.57,4.88,6.59,8.57,6.59,5.41,0,9.8-8.66,9.8-8.66S60.61,32.55,55.2,32.55ZM17.89,39.33a1.89,1.89,0,1,1,1.89-1.88A1.88,1.88,0,0,1,17.89,39.33Z"/><polygon class="cls-2" points="35.93 24.08 34.26 22.4 39.8 15.42 42.92 18.53 35.93 24.08"/><polygon class="cls-2" points="31.02 19.39 28.69 18.92 29.48 10.03 33.79 10.91 31.02 19.39"/><polygon class="cls-2" points="25.36 20.47 23.16 21.34 18.95 13.47 23.05 11.86 25.36 20.47"/></svg>